:FULLY-SPECIFIED
:FORCE-ALL-JOINTS-BE-3DOF
:DEGREES
2039
root -3.2616 15.2008 22.2781 898.213 -9.4014 173.349
lfemur -15.4543 12.613 -23.093
ltibia 56.4061 0 0
lfoot -25.0037 18.6835 0
ltoes -41.396 0 0
rfemur -49.3585 -10.0722 13.086
rtibia 60.3869 0 0
rfoot 3.94061 -1.78162 0
rtoes -3.45643 0 0
lowerback 15.2812 -0.712294 -8.43546
upperback -0.528987 -2.36587 2.06426
thorax -8.7662 -0.731272 7.59158
lowerneck -2.49034 -3.48361 -6.21155
upperneck 6.98943 -4.58826 1.10356
head 2.85997 -2.4714 1.27697
lclavicle 2.88743e-14 9.02071e-15 0
lhumerus -2.98088 -34.85 85.2894
lradius 67.8974 0 0
lwrist -3.52378 0 0
lhand -20.6633 38.9105 0
lfingers 7.12502 0 0
lthumb -0.983595 -651.34 0
rclavicle -2.36103e-14 -1.27222e-14 0
rhumerus 6.34417 9.53451 -78.023
rradius 109.6 0 0
rwrist -31.8946 0 0
rhand 48.938 -406.78 0
rfingers 7.12502 0 0
rthumb 26.8732 298.424 0
2040
root -3.26541 15.2056 22.0939 897.863 -10.239 173.527
lfemur -14.2455 11.996 -22.8932
ltibia 56.4431 0 0
lfoot -25.2213 19.2374 0
ltoes -41.3966 0 0
rfemur -50.2684 -10.2996 13.0658
rtibia 57.5766 0 0
rfoot 5.9022 -1.44965 0
rtoes -2.98079 0 0
lowerback 15.1515 -0.581494 -8.35997
upperback -0.560002 -2.15297 2.19863
thorax -8.76456 -0.626372 7.64687
lowerneck -2.21055 -3.81038 -6.68754
upperneck 7.25919 -5.05479 1.24264
head 2.94148 -2.72548 1.39097
lclavicle 3.2642e-14 8.93846e-15 0
lhumerus -5.56686 -34.016 86.0423
lradius 70.1225 0 0
lwrist -2.53889 0 0
lhand -20.3796 38.783 0
lfingers 7.12502 0 0
lthumb -1.65189 -650.846 0
rclavicle -1.94467e-14 -1.30403e-14 0
rhumerus 9.76641 8.86407 -77.1579
rradius 105.338 0 0
rwrist -29.7935 0 0
rhand 52.081 -407.313 0
rfingers 7.12502 0 0
rthumb 26.507 298.331 0
2041
root -3.27233 15.2092 21.9048 897.514 -10.9536 173.731
lfemur -13.0367 11.3789 -22.6933
ltibia 56.4802 0 0
lfoot -25.4389 19.7913 0
ltoes -41.3973 0 0
rfemur -51.1782 -10.5269 13.0456
rtibia 54.7663 0 0
rfoot 7.8638 -1.11767 0
rtoes -2.50514 0 0
lowerback 14.8445 -0.438836 -8.15285
upperback -0.532614 -1.89101 2.26898
thorax -8.61271 -0.516754 7.53409
lowerneck -1.92782 -4.15302 -7.05193
upperneck 7.45086 -5.54498 1.34477
head 2.99486 -2.98709 1.47303
lclavicle 3.64096e-14 8.8562e-15 0
lhumerus -8.15284 -33.182 86.7952
lradius 72.3476 0 0
lwrist -1.55401 0 0
lhand -20.096 38.6555 0
lfingers 7.12502 0 0
lthumb -2.32019 -650.352 0
rclavicle -1.52831e-14 -1.33583e-14 0
rhumerus 13.1887 8.19362 -76.2928
rradius 101.075 0 0
rwrist -27.6923 0 0
rhand 55.224 -407.846 0
rfingers 7.12502 0 0
rthumb 26.1408 298.237 0
2042
root -3.28162 15.2068 21.7152 897.114 -11.4771 173.989
lfemur -11.8279 10.7619 -22.4935
ltibia 56.5172 0 0
lfoot -25.6565 20.3451 0
ltoes -41.6896 0 0
rfemur -52.088 -10.7543 13.0253
rtibia 51.9559 0 0
rfoot 9.82539 -0.7857 0
rtoes -2.0295 0 0
lowerback 14.5745 -0.248299 -7.82483
upperback -0.477313 -1.55162 2.32165
thorax -8.46736 -0.376232 7.31832
lowerneck -1.78362 -4.5135 -7.41086
upperneck 7.69028 -6.04796 1.42839
head 3.09333 -3.25561 1.54426
lclavicle 4.01773e-14 8.77395e-15 0
lhumerus -10.7388 -32.348 87.5481
lradius 74.5727 0 0
lwrist 0.589976 0 0
lhand -19.8123 38.528 0
lfingers 7.12502 0 0
lthumb -2.98848 -649.858 0
rclavicle -1.11195e-14 -1.36764e-14 0
rhumerus 16.6109 7.52317 -75.4277
rradius 96.8128 0 0
rwrist -25.5912 0 0
rhand 58.367 -408.379 0
rfingers 7.12502 0 0
rthumb 25.7746 298.144 0
2043
root -3.294 15.2028 21.5257 896.764 -11.9125 174.118
lfemur -10.6191 10.1448 -22.2937
ltibia 56.5542 0 0
lfoot -25.8741 20.899 0
ltoes -41.9818 0 0
rfemur -52.9978 -10.9817 13.0051
rtibia 49.1456 0 0
rfoot 11.787 -0.453727 0
rtoes -1.55385 0 0
lowerback 14.2891 -0.0767466 -7.61554
upperback -0.499185 -1.26061 2.32717
thorax -8.38527 -0.246462 7.13237
lowerneck -1.56668 -4.78235 -7.65745
upperneck 8.03605 -6.44127 1.39008
head 3.20105 -3.47711 1.55965
lclavicle 4.39449e-14 8.69169e-15 0
lhumerus -13.3248 -31.514 88.301
lradius 76.7978 0 0
lwrist 2.73396 0 0
lhand -19.5287 38.4006 0
lfingers 7.12502 0 0
lthumb -3.65678 -649.365 0
rclavicle -6.95591e-15 -1.39944e-14 0
rhumerus 20.0331 6.85273 -74.5626
rradius 92.5504 0 0
rwrist -23.4901 0 0
rhand 61.51 -408.912 0
rfingers 7.12502 0 0
rthumb 25.4085 298.051 0
2044
root -3.30855 15.1975 21.3299 896.378 -12.2025 174.276
lfemur -9.41031 9.52779 -22.0938
ltibia 56.5913 0 0
lfoot -26.0918 21.4528 0
ltoes -42.2741 0 0
rfemur -53.1875 -11.2523 12.9344
rtibia 46.3352 0 0
rfoot 13.7486 -0.121753 0
rtoes -1.07821 0 0
lowerback 13.9297 0.133994 -7.33748
upperback -0.464749 -0.90402 2.31158
thorax -8.2095 -0.095303 6.86806
lowerneck -1.55852 -5.0361 -7.87449
upperneck 8.51845 -6.79767 1.32082
head 3.39262 -3.68335 1.5538
lclavicle 4.77125e-14 8.60943e-15 0
lhumerus -15.9108 -30.68 89.0539
lradius 79.0229 0 0
lwrist 4.87795 0 0
lhand -19.245 38.2731 0
lfingers 7.12502 0 0
lthumb -4.32508 -648.871 0
rclavicle -2.7923e-15 -1.43125e-14 0
rhumerus 23.4554 6.18228 -73.6975
rradius 88.288 0 0
rwrist -21.3889 0 0
rhand 64.653 -409.445 0
rfingers 7.12502 0 0
rthumb 25.0423 297.958 0
2045
root -3.3255 15.1816 21.1391 896.036 -12.4569 174.315
lfemur -8.20151 8.91075 -21.894
ltibia 56.6283 0 0
lfoot -26.3094 22.0067 0
ltoes -42.5664 0 0
rfemur -53.3773 -11.523 12.8637
rtibia 43.5249 0 0
rfoot 15.7102 0.21022 0
rtoes -0.602561 0 0
lowerback 13.6593 0.339061 -7.12
upperback -0.45209 -0.578564 2.22614
thorax -8.09943 0.0469064 6.57442
lowerneck -1.69976 -5.27686 -8.04638
upperneck 9.11175 -7.12763 1.25929
head 3.65083 -3.8776 1.53684
lclavicle 5.14802e-14 8.52718e-15 0
lhumerus -18.4967 -29.8459 89.8069
lradius 81.248 0 0
lwrist 7.02193 0 0
lhand -18.9614 38.1456 0
lfingers 7.12502 0 0
lthumb -4.99337 -648.377 0
rclavicle 1.37131e-15 -1.46306e-14 0
rhumerus 26.8776 5.51183 -72.8324
rradius 84.0256 0 0
rwrist -19.2878 0 0
rhand 61.3336 -409.168 0
rfingers 7.12502 0 0
rthumb 24.6761 297.865 0
2046
root -3.33815 15.1603 20.9527 895.736 -12.7523 174.341
lfemur -6.99272 8.2937 -21.6941
ltibia 56.6653 0 0
lfoot -26.527 22.5605 0
ltoes -42.8586 0 0
rfemur -53.567 -11.7936 12.793
rtibia 40.7145 0 0
rfoot 17.6717 0.542193 0
rtoes -0.126916 0 0
lowerback 13.4413 0.547677 -6.94353
upperback -0.451189 -0.263663 2.08847
thorax -8.02677 0.187293 6.25324
lowerneck -1.97405 -5.56441 -8.07695
upperneck 9.80588 -7.51132 1.12942
head 3.96592 -4.09841 1.46168
lclavicle 5.52478e-14 8.44492e-15 0
lhumerus -21.0827 -29.0119 90.5598
lradius 83.473 0 0
lwrist 9.16592 0 0
lhand -19.4698 38.4215 0
lfingers 7.12502 0 0
lthumb -5.66167 -647.883 0
rclavicle 5.53492e-15 -1.49486e-14 0
rhumerus 30.2999 4.84139 -71.9673
rradius 79.7632 0 0
rwrist -17.1867 0 0
rhand 58.0143 -408.89 0
rfingers 7.12502 0 0
rthumb 24.31 297.772 0
2047
root -3.35855 15.1282 20.7562 895.344 -12.9026 174.161
lfemur -5.78393 7.67666 -21.4943
ltibia 56.7024 0 0
lfoot -26.7446 23.1144 0
ltoes -43.1509 0 0
rfemur -53.7568 -12.0643 12.7223
rtibia 37.9042 0 0
rfoot 19.6333 0.874167 0
rtoes 0.34873 0 0
lowerback 13.264 0.838153 -6.90972
upperback -0.416764 0.12479 1.83445
thorax -7.94899 0.365234 5.8749
lowerneck -2.03581 -5.85725 -8.29028
upperneck 10.3616 -7.94503 1.39415
head 4.22907 -4.33103 1.55428
lclavicle 5.90155e-14 8.36267e-15 0
lhumerus -23.6687 -28.1779 91.3127
lradius 85.6981 0 0
lwrist 11.3099 0 0
lhand -19.9782 38.6974 0
lfingers 7.12502 0 0
lthumb -6.32996 -647.389 0
rclavicle 9.69853e-15 -1.52667e-14 0
rhumerus 33.7221 4.17094 -71.1022
rradius 75.5008 0 0
rwrist -15.0855 0 0
rhand 54.6949 -408.613 0
rfingers 7.12502 0 0
rthumb 23.9438 297.679 0
2048
root -3.37548 15.084 20.5618 894.709 -13.1837 173.94
lfemur -4.57513 7.05961 -21.2944
ltibia 56.7394 0 0
lfoot -26.9622 23.6683 0
ltoes -43.4432 0 0
rfemur -53.9465 -12.3349 12.6516
rtibia 39.1191 0 0
rfoot 21.5949 1.20614 0
rtoes 0.824375 0 0
lowerback 13.3073 1.14408 -6.95791
upperback -0.1936 0.491633 1.49589
thorax -7.78457 0.520394 5.45937
lowerneck -2.29942 -6.29804 -8.35458
upperneck 11.271 -8.58833 1.79748
head 4.19324 -4.63998 1.48409
lclavicle 6.27831e-14 8.28041e-15 0
lhumerus -26.2547 -27.3439 92.0656
lradius 87.9232 0 0
lwrist 13.4539 0 0
lhand -20.4866 38.9733 0
lfingers 7.12502 0 0
lthumb -6.99826 -646.896 0
rclavicle 1.38621e-14 -1.55847e-14 0
rhumerus 34.237 4.07937 -70.6946
rradius 71.2385 0 0
rwrist -12.9844 0 0
rhand 51.3755 -408.335 0
rfingers 7.12502 0 0
rthumb 23.5776 297.586 0
2049
root -3.37238 15.0186 20.3883 893.916 -14.1872 173.792
lfemur -3.36634 6.44257 -21.0946
ltibia 56.7764 0 0
lfoot -27.1798 24.2221 0
ltoes -43.7354 0 0
rfemur -54.1363 -12.6056 12.5809
rtibia 40.334 0 0
rfoot 23.5565 1.53811 0
rtoes 1.30002 0 0
lowerback 13.8619 1.36468 -7.24349
upperback 0.0846358 0.668034 1.27158
thorax -7.82478 0.596923 5.34523
lowerneck -2.48949 -6.84105 -8.53681
upperneck 11.6789 -9.34926 2.13693
head 4.41357 -5.01182 1.55376
lclavicle 6.65508e-14 8.19816e-15 0
lhumerus -28.8407 -26.5099 92.8185
lradius 90.1483 0 0
lwrist 15.5979 0 0
lhand -20.995 39.2491 0
lfingers 7.12502 0 0
lthumb -7.66656 -646.402 0
rclavicle 1.80258e-14 -1.59028e-14 0
rhumerus 34.7519 3.98781 -70.287
rradius 66.9761 0 0
rwrist -10.8832 0 0
rhand 48.0562 -408.058 0
rfingers 7.12502 0 0
rthumb 23.2114 297.493 0
2050
root -3.37069 14.9391 20.2138 893.18 -15.3522 173.366
lfemur -3.1162 5.83088 -20.9979
ltibia 56.8135 0 0
lfoot -27.3974 24.776 0
ltoes -44.0277 0 0
rfemur -54.326 -12.8762 12.5101
rtibia 41.549 0 0
rfoot 25.5181 1.87009 0
rtoes 1.37126 0 0
lowerback 14.3175 1.73614 -7.7829
upperback 0.562843 0.999665 1.05017
thorax -7.61962 0.735399 5.34444
lowerneck -2.79819 -7.62057 -9.07552
upperneck 11.8843 -10.3911 2.61722
head 4.63916 -5.51393 1.69524
lclavicle 7.03184e-14 8.1159e-15 0
lhumerus -31.4266 -25.6759 93.5714
lradius 92.3734 0 0
lwrist 17.7419 0 0
lhand -21.5034 39.525 0
lfingers 7.12502 0 0
lthumb -8.33485 -645.908 0
rclavicle 2.21894e-14 -1.62209e-14 0
rhumerus 35.2669 3.89624 -69.8793
rradius 62.7137 0 0
rwrist -8.78211 0 0
rhand 44.7368 -407.78 0
rfingers 7.12502 0 0
rthumb 22.8453 297.4 0
2051
root -3.33927 14.8361 20.0783 892.901 -17.524 172.91
lfemur -2.86606 5.21919 -20.9012
ltibia 56.8505 0 0
lfoot -27.6151 25.3298 0
ltoes -44.32 0 0
rfemur -54.5158 -13.1469 12.4394
rtibia 42.7639 0 0
rfoot 27.4797 2.20206 0
rtoes 1.44249 0 0
lowerback 15.2595 2.02026 -8.25939
upperback 0.929203 1.16374 0.784456
thorax -7.78127 0.803491 5.29017
lowerneck -3.12889 -8.56751 -9.93353
upperneck 11.5963 -11.6318 3.5171
head 4.78381 -6.08059 1.99671
lclavicle 7.40861e-14 8.03365e-15 0
lhumerus -34.0126 -24.8419 94.3243
lradius 94.5985 0 0
lwrist 19.8858 0 0
lhand -22.0118 39.8009 0
lfingers 7.12502 0 0
lthumb -9.00315 -645.414 0
rclavicle 2.6353e-14 -1.65389e-14 0
rhumerus 35.7818 3.80467 -69.4717
rradius 58.4513 0 0
rwrist -6.68097 0 0
rhand 41.4175 -407.503 0
rfingers 7.12502 0 0
rthumb 22.4791 297.307 0
2052
root -3.33608 14.744 19.889 893.682 -18.2537 172.336
lfemur -2.61591 4.6075 -20.8044
ltibia 56.8876 0 0
lfoot -27.8327 25.8837 0
ltoes -44.6122 0 0
rfemur -54.7055 -13.4175 12.3687
rtibia 43.9788 0 0
rfoot 26.0432 1.92038 0
rtoes 1.51373 0 0
lowerback 14.2191 2.72395 -8.82504
upperback 1.24169 2.08432 0.52035
thorax -7.01435 1.21684 5.14034
lowerneck -3.13153 -9.55799 -10.8601
upperneck 10.7616 -12.9387 4.58446
head 4.7473 -6.66597 2.36959
lclavicle 7.78537e-14 7.95139e-15 0
lhumerus -36.5986 -24.0079 95.0772
lradius 96.8236 0 0
lwrist 22.0298 0 0
lhand -22.5202 40.0768 0
lfingers 7.12502 0 0
lthumb -9.67145 -644.921 0
rclavicle 3.05166e-14 -1.6857e-14 0
rhumerus 36.2967 3.7131 -69.0641
rradius 54.1889 0 0
rwrist -4.57984 0 0
rhand 38.0981 -407.225 0
rfingers 7.12502 0 0
rthumb 21.8388 296.843 0
